<svg width="24" height="24" viewBox="0 0 24 24" fill="none" xmlns="http://www.w3.org/2000/svg">
<path d="M4.14572 12.8831C1.97643 10.7233 3.42262 4.86071 4.14572 4.14075C4.86881 3.42079 10.7569 1.98087 12.9262 4.14075C20.9835 12.1632 21.7066 12.8831 17.3681 17.3058C15.0995 19.5644 13.801 20.4818 12 19.7564" stroke="#0A0C10" stroke-width="1.5" stroke-linecap="round" stroke-linejoin="round"/>
<path d="M6 16H8M8 16H10M8 16V18M8 16V14M13 16C13 18.7614 10.7614 21 8 21C5.23858 21 3 18.7614 3 16C3 13.2386 5.23858 11 8 11C10.7614 11 13 13.2386 13 16Z" stroke="#0A0C10" stroke-width="1.5" stroke-linecap="round" stroke-linejoin="round"/>
<path d="M7.5 8C7.77614 8 8 7.77614 8 7.5C8 7.22386 7.77614 7 7.5 7C7.22386 7 7 7.22386 7 7.5C7 7.77614 7.22386 8 7.5 8Z" fill="#0A0C10" stroke="#0A0C10" stroke-linecap="round" stroke-linejoin="round"/>
</svg>
