<svg width="24" height="24" viewBox="0 0 24 24" fill="none" xmlns="http://www.w3.org/2000/svg">
<path d="M13.5 5.04193C19 5.25205 19 6.43357 19 12.4118C19 17.6777 19 18.763 13.5 18.9601M8 5.02527C2 5.18171 2 6.2125 2 12C2 17.7875 2 18.8183 8 18.9747" stroke="#0A0C10" stroke-width="1.5" stroke-linecap="round" stroke-linejoin="round"/>
<path d="M11 8L9.2 10.4C8.70557 11.0592 9.17595 12 10 12H12C12.824 12 13.2944 12.9408 12.8 13.6L11 16" stroke="#0A0C10" stroke-width="1.5" stroke-linecap="round" stroke-linejoin="round"/>
<path d="M19 9C21.5 9.5 22 9 22 12C22 15 21.5 14.5 19 15" stroke="#0A0C10" stroke-width="1.5" stroke-linecap="round" stroke-linejoin="round"/>
</svg>
