<svg width="24" height="24" viewBox="0 0 24 24" fill="none" xmlns="http://www.w3.org/2000/svg">
<path d="M19 12.4118C19 18.5 19 19 10.5 19C2 19 2 18.5 2 12C2 5.5 2 5 10.5 5C19 5 19 5.5 19 12.4118Z" stroke="#0A0C10" stroke-width="1.5" stroke-linecap="round" stroke-linejoin="round"/>
<path d="M6.25 9C6.25 9 7 10.1538 7 12C7 13.8462 6.25 15 6.25 15" stroke="#0A0C10" stroke-width="1.5" stroke-linecap="round" stroke-linejoin="round"/>
<path d="M10.25 9C10.25 9 11 10.1538 11 12C11 13.8462 10.25 15 10.25 15" stroke="#0A0C10" stroke-width="1.5" stroke-linecap="round" stroke-linejoin="round"/>
<path d="M19 9C21.5 9.5 22 9 22 12C22 15 21.5 14.5 19 15" stroke="#0A0C10" stroke-width="1.5" stroke-linecap="round" stroke-linejoin="round"/>
</svg>
