<svg width="24" height="24" viewBox="0 0 24 24" fill="none" xmlns="http://www.w3.org/2000/svg">
<path d="M15 6H19" stroke="#0A0C10" stroke-width="1.5" stroke-miterlimit="10" stroke-linecap="round" stroke-linejoin="round"/>
<path d="M13 14H21" stroke="#0A0C10" stroke-width="1.5" stroke-miterlimit="10" stroke-linecap="round" stroke-linejoin="round"/>
<path d="M7.5 12H3V7H7.5C8.9 7 10 8.1 10 9.5C10 10.8 8.8 12 7.5 12Z" stroke="#0A0C10" stroke-width="1.5" stroke-miterlimit="10" stroke-linecap="round" stroke-linejoin="round"/>
<path d="M8 18C6 18 3 18 3 18V12C3 12 6 12 8 12C10 12 11 13.32 11 15C11 16.56 10 18 8 18Z" stroke="#0A0C10" stroke-width="1.5" stroke-miterlimit="10" stroke-linecap="round" stroke-linejoin="round"/>
<path d="M20.04 16.5125C19.2933 17.4687 18.2267 18 17.0533 18C14.8133 18 13 16.0875 13 13.75C13 11.4125 14.8133 9.5 17.0533 9.5C19.2933 9.5 21 11.4125 21 13.75" stroke="#0A0C10" stroke-width="1.5" stroke-miterlimit="10" stroke-linecap="round" stroke-linejoin="round"/>
</svg>
