<svg width="24" height="24" viewBox="0 0 24 24" fill="none" xmlns="http://www.w3.org/2000/svg">
<path d="M15.5187 20.8312C8.99707 18.6339 5.50186 14.6437 3.27588 9.01866C2.7194 7.89365 2.71938 5.08115 6.05833 3.28114C6.89306 2.83114 7.7278 2.83113 8.84079 3.95615C9.95377 5.08116 8.84078 3.95614 9.95377 5.08114C11.2338 6.375 11.0976 7.5 10.875 8.0625C10.6524 8.7375 9.61987 9.35616 9.95377 10.7062C10.2877 12.0562 11.9571 13.8562 13.2927 14.0812C14.6283 14.3062 15.381 13.4625 15.9375 13.125C16.494 12.7875 17.4142 12.6222 18.3011 13.5187C18.75 13.9724 18.8576 14.0812 19.9706 15.2062C21.0836 16.3312 21.2094 17.2442 20.7497 18.0187C19.3125 20.9404 16.8946 21.2948 15.5187 20.8312Z" stroke="#0A0C10" stroke-width="1.5" stroke-linecap="round" stroke-linejoin="round"/>
</svg>
