<svg width="24" height="24" viewBox="0 0 24 24" fill="none" xmlns="http://www.w3.org/2000/svg">
<path d="M11.5 13.0623C12.0693 13.5885 12.7125 13.9834 13.2927 14.0812C14.6283 14.3062 15.381 13.4625 15.9375 13.125C16.494 12.7875 17.4142 12.6222 18.3011 13.5187C18.75 13.9724 18.8576 14.0812 19.9706 15.2062C21.0836 16.3312 21.2094 17.2442 20.7497 18.0187C19.3125 20.9404 16.8946 21.2948 15.5187 20.8312C12.3747 19.7719 9.93413 18.2959 8 16.421M9.89755 10C9.98857 9.11504 10.6954 8.60711 10.875 8.0625C11.0976 7.5 11.2338 6.375 9.95377 5.08114C8.84078 3.95614 9.95377 5.08116 8.84079 3.95615C7.7278 2.83113 6.89306 2.83114 6.05833 3.28114C2.71938 5.08115 2.7194 7.89365 3.27588 9.01866C3.86292 10.5021 4.53824 11.8719 5.33406 13.125" stroke="#0A0C10" stroke-width="1.5" stroke-linecap="round" stroke-linejoin="round"/>
<path d="M3 21L19 5" stroke="#0A0C10" stroke-width="1.5" stroke-linecap="round" stroke-linejoin="round"/>
</svg>
