<svg width="24" height="24" viewBox="0 0 24 24" fill="none" xmlns="http://www.w3.org/2000/svg">
<path d="M14.5187 20.8312C7.99707 18.6339 4.50186 14.6437 2.27588 9.01866C1.7194 7.89365 1.71938 5.08115 5.05833 3.28114C5.89306 2.83114 6.7278 2.83113 7.84079 3.95615C8.95377 5.08116 7.84078 3.95614 8.95377 5.08114C10.2338 6.375 10.0976 7.5 9.875 8.0625C9.65241 8.7375 8.61987 9.35616 8.95377 10.7062C9.28766 12.0562 10.9571 13.8562 12.2927 14.0812C13.6283 14.3062 14.381 13.4625 14.9375 13.125C15.494 12.7875 16.4142 12.6222 17.3011 13.5187C17.75 13.9724 17.8576 14.0812 18.9706 15.2062C20.0836 16.3312 20.2094 17.2442 19.7497 18.0187C18.3125 20.9404 15.8946 21.2948 14.5187 20.8312Z" stroke="#0A0C10" stroke-width="1.5" stroke-linecap="round" stroke-linejoin="round"/>
<path d="M14.4368 1.96721C14.4368 1.96721 16.6071 2.16065 18.7117 4.22402C20.8162 6.2874 21.0135 8.41526 21.0135 8.41526" stroke="#0A0C10" stroke-width="1.5" stroke-linecap="round" stroke-linejoin="round"/>
<path d="M14 5.13117C14 5.13117 15.2036 5.34396 16.4663 6.58198C17.729 7.82001 17.946 9 17.946 9" stroke="#0A0C10" stroke-width="1.5" stroke-linecap="round" stroke-linejoin="round"/>
</svg>
