<svg width="24" height="24" viewBox="0 0 24 24" fill="none" xmlns="http://www.w3.org/2000/svg">
<path d="M21 14.4706C21 20 19.5 22 12 22C4.5 22 3 20.5 3 14C3 7.5 4.5 6 12 6C19.5 6 21 7.5 21 14.4706Z" stroke="#0A0C10" stroke-width="1.5" stroke-linecap="round" stroke-linejoin="round"/>
<path d="M20.5 10C20.5 13.5 22 17 12 17C1.99997 17 3.49999 14 3.49999 10" stroke="#0A0C10" stroke-width="1.5" stroke-linecap="round" stroke-linejoin="round"/>
<path d="M14 14L10 14" stroke="#0A0C10" stroke-width="1.5" stroke-linecap="round" stroke-linejoin="round"/>
<path d="M8 6C8 4 8.66667 3 12 3C15.3333 3 16 4 16 6" stroke="#0A0C10" stroke-width="1.5" stroke-linecap="round" stroke-linejoin="round"/>
</svg>
