<svg width="24" height="24" viewBox="0 0 24 24" fill="none" xmlns="http://www.w3.org/2000/svg">
<path d="M21 11.9503C21 13.1436 19.9 14.0387 19.4 15.0331C19 16.0276 19.1 17.5193 18.3 18.3149C17.5 19.1105 16.1 18.9116 15 19.4088C14 19.8066 13.1 21 11.9 21C10.7 21 9.8 19.9061 8.8 19.4088C7.8 19.011 6.3 19.1105 5.5 18.3149C4.7 17.5193 4.9 16.1271 4.4 15.0331C4.1 14.0387 3 13.1436 3 11.9503C3 10.7569 4.1 9.86188 4.6 8.8674C5 7.87293 4.9 6.38122 5.7 5.58564C6.4 4.8895 7.9 4.98895 8.9 4.59116C9.9 4.09392 10.8 3 12 3C13.2 3 14.1 4.09392 15.1 4.59116C16.1 4.98895 17.6 4.8895 18.4 5.68508C19.2 6.48066 19 7.87293 19.5 8.96685C19.9 9.86188 21 10.7569 21 11.9503Z" stroke="#0A0C10" stroke-width="1.5" stroke-linecap="round" stroke-linejoin="round"/>
<path d="M9 15L15 9" stroke="#0A0C10" stroke-width="1.5" stroke-linecap="round" stroke-linejoin="round"/>
<path d="M14.5 15C14.7761 15 15 14.7761 15 14.5C15 14.2239 14.7761 14 14.5 14C14.2239 14 14 14.2239 14 14.5C14 14.7761 14.2239 15 14.5 15Z" fill="#0A0C10" stroke="#0A0C10" stroke-linecap="round" stroke-linejoin="round"/>
<path d="M9.5 10C9.77614 10 10 9.77614 10 9.5C10 9.22386 9.77614 9 9.5 9C9.22386 9 9 9.22386 9 9.5C9 9.77614 9.22386 10 9.5 10Z" fill="#0A0C10" stroke="#0A0C10" stroke-linecap="round" stroke-linejoin="round"/>
</svg>
