<svg width="24" height="24" viewBox="0 0 24 24" fill="none" xmlns="http://www.w3.org/2000/svg">
<path d="M7.4 10.7545H12.4M7.4 13.2091H12.4M14.9 15.9091C14.2333 16.2364 13.5667 16.4 12.8167 16.4C10.3167 16.4 8.23333 14.3545 8.23333 11.9C8.23333 9.44545 10.3167 7.4 12.8167 7.4C13.5667 7.4 14.2333 7.56364 14.9 7.89091" stroke="#0A0C10" stroke-width="1.5" stroke-miterlimit="10" stroke-linecap="round" stroke-linejoin="round"/>
<path d="M12 3C7.02944 3 3 7.02944 3 12C3 16.9706 7.02944 21 12 21C16.9706 21 21 16.9706 21 12C21 7.02944 16.9706 3 12 3Z" stroke="#0A0C10" stroke-width="1.5" stroke-linecap="round" stroke-linejoin="round"/>
</svg>
