<svg width="24" height="24" viewBox="0 0 24 24" fill="none" xmlns="http://www.w3.org/2000/svg">
<path d="M16.014 20.9293C16.014 20.9293 11.0049 21.2294 9.8436 20.5931C8.00309 19.5846 7.26322 19.5846 4.68285 19.5846C3.78533 19.5846 3 18.8003 3 17.7918V12.4133C3 11.5169 3.78533 10.7325 4.68285 10.7325H5.01942C5.01942 10.7325 5.80475 10.7325 6.14132 10.7325C9.73141 10.8446 10.6289 5.12994 10.6289 5.12994C11.4143 1.99249 13.8824 2.77685 14.3312 4.56969C14.5556 5.80226 14.5556 8.82766 14.5556 8.82766C14.5556 9.16381 14.78 9.38792 15.1165 9.38792H19.0432C19.8285 9.38792 21.287 10.0602 20.9504 12.4133L19.8285 17.7918C19.2676 20.257 18.5096 20.9293 16.014 20.9293Z" stroke="#0A0C10" stroke-width="1.5" stroke-linecap="round" stroke-linejoin="round"/>
</svg>
