<svg width="24" height="24" viewBox="0 0 24 24" fill="none" xmlns="http://www.w3.org/2000/svg">
<path d="M11.9999 3C7.02938 3 2.99994 7.02944 2.99994 12C2.99994 16.9706 7.02938 21 11.9999 21C16.9705 21 20.9999 16.9706 20.9999 12C20.9999 7.02944 16.9705 3 11.9999 3Z" stroke="#0A0C10" stroke-width="1.5" stroke-linecap="round" stroke-linejoin="round"/>
<path d="M8.47052 11.6044V15.5M11.4823 10.0462V15.5M15.9999 15.5C15.9999 15.5 15.9999 13.0068 15.9999 11.6044C15.9999 9.26711 12.8376 9.50085 11.4823 11.2928" stroke="#0A0C10" stroke-width="1.5" stroke-miterlimit="10" stroke-linecap="round" stroke-linejoin="round"/>
<path d="M8.49994 9.5C8.77608 9.5 8.99994 9.27614 8.99994 9C8.99994 8.72386 8.77608 8.5 8.49994 8.5C8.2238 8.5 7.99994 8.72386 7.99994 9C7.99994 9.27614 8.2238 9.5 8.49994 9.5Z" fill="#0A0C10" stroke="#0A0C10" stroke-linecap="round" stroke-linejoin="round"/>
</svg>
