<svg width="24" height="24" viewBox="0 0 24 24" fill="none" xmlns="http://www.w3.org/2000/svg">
<path d="M12 17C13.5 17 18 13.5 18 8.66667C18 5 15.5 2 12 2C8.5 2 6 5 6 8.66667C6 13.5 10.5 17 12 17Z" stroke="#0A0C10" stroke-width="1.5" stroke-linecap="round" stroke-linejoin="round"/>
<path d="M12 8.5C12.2761 8.5 12.5 8.27614 12.5 8C12.5 7.72386 12.2761 7.5 12 7.5C11.7239 7.5 11.5 7.72386 11.5 8C11.5 8.27614 11.7239 8.5 12 8.5Z" fill="#0A0C10" stroke="#0A0C10" stroke-linecap="round" stroke-linejoin="round"/>
<path d="M5.5 18C4.56453 18.4135 4 18.9363 4 19.4592C4 20.899 7.6 22 12 22C16.4 22 20 20.899 20 19.4592C20 18.9363 19.4355 18.4135 18.5 18" stroke="#0A0C10" stroke-width="1.5" stroke-linecap="round" stroke-linejoin="round"/>
</svg>
