<svg width="25" height="24" viewBox="0 0 25 24" fill="none" xmlns="http://www.w3.org/2000/svg">
<path d="M19 20C20.25 20 24 17.2 24 13.3333C24 10.4 21.9167 8 19 8C16.0833 8 14 10.4 14 13.3333C14 17.2 17.75 20 19 20Z" stroke="#0A0C10" stroke-width="1.5" stroke-linecap="round" stroke-linejoin="round"/>
<path d="M19 13.5C19.2761 13.5 19.5 13.2761 19.5 13C19.5 12.7239 19.2761 12.5 19 12.5C18.7239 12.5 18.5 12.7239 18.5 13C18.5 13.2761 18.7239 13.5 19 13.5Z" fill="#0A0C10" stroke="#0A0C10" stroke-linecap="round" stroke-linejoin="round"/>
<path d="M13.2857 20C4.02857 20 3 18.5 3 11C3 3.5 5.05877 2 12.2645 2C18 2 19.5 3 20 5" stroke="#0A0C10" stroke-width="1.5" stroke-linecap="round" stroke-linejoin="round"/>
</svg>
