<svg width="24" height="24" viewBox="0 0 24 24" fill="none" xmlns="http://www.w3.org/2000/svg">
<path d="M14.6 19.6C13.8 19.9 12.9 20 12 20C7.6 20 4 16.4 4 12C4 7.6 7.6 4 12 4C16.4 4 20 7.6 20 12C20 12.3 20 12.5 20 12.8M16.2 9.3C15.1 12.5 14.4 14.1 15.5 15.2C16.7 16.4 19.2 16.2 19.9 12.9M13.0539 8.33156C14.7871 9.05394 15.4859 11.3338 14.6148 13.4238C13.7437 15.5139 11.6326 16.6225 9.89937 15.9002C8.16619 15.1778 7.46734 12.8979 8.33844 10.8079C9.20954 8.71787 11.3207 7.60918 13.0539 8.33156Z" stroke="#0A0C10" stroke-width="1.5" stroke-miterlimit="10" stroke-linecap="round" stroke-linejoin="round"/>
</svg>
