<svg width="24" height="24" viewBox="0 0 24 24" fill="none" xmlns="http://www.w3.org/2000/svg">
<path d="M7.00002 18C3.5 17.5 3.00006 16.7308 3.00003 13.6154C3 10.5 3.00003 9 12 9C21 9 21 10.5 21 13.6154C21 16.5 21 17.5 17 18" stroke="#0A0C10" stroke-width="1.5" stroke-linecap="round" stroke-linejoin="round"/>
<path d="M6 9C6 8.61497 6 8.51872 6 8.13369C6 4.09091 6.5 3 12 3C17.5 3 18 4.09091 18 8.13369C18 8.64706 18 8.61497 18 9" stroke="#0A0C10" stroke-width="1.5" stroke-linecap="round" stroke-linejoin="round"/>
<path d="M12 21C16.375 21 17 19.8333 17 17.5C17 15.1667 16.5 14 12 14C7.5 14 7 15.1667 7 17.5C7 19.8333 7.625 21 12 21Z" stroke="#0A0C10" stroke-width="1.5" stroke-linecap="round" stroke-linejoin="round"/>
</svg>
