<?xml version="1.0" standalone="no"?>
<!DOCTYPE svg PUBLIC "-//W3C//DTD SVG 20010904//EN"
 "http://www.w3.org/TR/2001/REC-SVG-20010904/DTD/svg10.dtd">
<svg version="1.0" xmlns="http://www.w3.org/2000/svg"
 width="64.000000pt" height="64.000000pt" viewBox="0 0 64.000000 64.000000"
 preserveAspectRatio="xMidYMid meet">

<g transform="translate(0.000000,64.000000) scale(0.100000,-0.100000)"
fill="#000000" stroke="none">
<path d="M223 602 c-251 -90 -272 -432 -35 -549 81 -40 183 -40 264 0 107 53
163 144 163 267 0 85 -21 142 -74 203 -72 81 -213 117 -318 79z m213 -50 c121
-62 178 -226 119 -343 -97 -192 -367 -195 -468 -5 -29 54 -30 174 -3 226 35
67 95 118 166 141 41 14 142 3 186 -19z"/>
<path d="M269 485 c-29 -16 -55 -66 -45 -90 9 -24 26 -17 38 15 17 51 63 65
98 30 29 -29 25 -61 -16 -109 -39 -45 -53 -106 -24 -106 8 0 16 10 18 21 2 12
19 40 38 62 19 22 37 54 40 71 17 85 -70 148 -147 106z"/>
<path d="M304 169 c-10 -17 13 -36 27 -22 12 12 4 33 -11 33 -5 0 -12 -5 -16
-11z"/>
</g>
</svg>
