<svg width="24" height="24" viewBox="0 0 24 24" fill="none" xmlns="http://www.w3.org/2000/svg">
<path d="M12 15C13.6569 15 15 13.6569 15 12C15 10.3431 13.6569 9 12 9C10.3431 9 9 10.3431 9 12C9 13.6569 10.3431 15 12 15Z" stroke="#0A0C10" stroke-width="1.5" stroke-linecap="round" stroke-linejoin="round"/>
<path d="M4 7.47568C3.1139 9 3.40459 15.5 4 16.5243C5.00006 18.2448 10.0001 21 12 21C13.9999 21 19.1422 18 20 16.5243C20.8578 15.0486 20.8578 8.95135 20 7.47568C19.1422 5.99998 14.0001 3 12 3C9.99992 3 4.8861 5.95135 4 7.47568Z" stroke="#0A0C10" stroke-width="1.5" stroke-linecap="round" stroke-linejoin="round"/>
</svg>
