<svg width="24" height="24" viewBox="0 0 24 24" fill="none" xmlns="http://www.w3.org/2000/svg">
<path d="M19.0004 15.5C17.8341 19 13.5022 21 12.0028 21C10.5033 21 6.17147 19 5.00521 15.5C4.33877 13.5 4.00553 11 4.00555 9C4.00555 7.91464 3.91134 6.6408 4.50002 5.54671C4.79417 5 9.00552 3 12.0028 3C15 3 19.0004 4.96945 19.3456 5.54671C20 6.6408 20 7.91464 20 9C20 11.5 19.6668 13.5 19.0004 15.5Z" stroke="#0A0C10" stroke-width="1.5" stroke-linecap="round" stroke-linejoin="round"/>
<path d="M10 14L14 10M14 14L10 10" stroke="#0A0C10" stroke-width="1.5" stroke-linecap="round" stroke-linejoin="round"/>
</svg>
