<svg width="24" height="24" viewBox="0 0 24 24" fill="none" xmlns="http://www.w3.org/2000/svg">
<path d="M19.1 12C19.1 10 19.9 9.7 21 9.2C21 5.5 20 4 12 4C4 4 3 5.5 3 9.2C4.1 9.7 4.9 10 4.9 12C4.9 14 4.1 14.3 3 14.8C3 18.5 3.5 20 12 20C20 20 21 18.5 21 14.8C19.9 14.3 19.1 14 19.1 12Z" stroke="#0A0C10" stroke-width="1.5" stroke-linecap="round" stroke-linejoin="round"/>
<path d="M10 5V6" stroke="#0A0C10" stroke-width="1.5" stroke-linecap="round" stroke-linejoin="round"/>
<path d="M10 10V14" stroke="#0A0C10" stroke-width="1.5" stroke-linecap="round" stroke-linejoin="round"/>
<path d="M10 18V19" stroke="#0A0C10" stroke-width="1.5" stroke-linecap="round" stroke-linejoin="round"/>
</svg>
