<svg width="24" height="24" viewBox="0 0 24 24" fill="none" xmlns="http://www.w3.org/2000/svg">
<path d="M12 21C7.02944 21 3 16.9706 3 12C3 7.02944 7.02944 3 12 3C15.3313 3 18.2398 4.80989 19.796 7.5" stroke="#0A0C10" stroke-width="1.5" stroke-linecap="round" stroke-linejoin="round"/>
<path d="M11 13.6667V12.8333C11 12.3333 11.3 12 11.8 12H13.3C13.7 12 14 12.4167 14 12.8333V14.4167C14 14.6667 13.9 15 13.7 15.0833L11 17H14" stroke="#0A0C10" stroke-width="1.5" stroke-linecap="round" stroke-linejoin="round"/>
<path d="M17 12V14.25C17 14.7 17.4 15 18 15H19" stroke="#0A0C10" stroke-width="1.5" stroke-linecap="round" stroke-linejoin="round"/>
<path d="M20 12V17" stroke="#0A0C10" stroke-width="1.5" stroke-linecap="round" stroke-linejoin="round"/>
<path d="M20 3.5V7.5H16" stroke="#0A0C10" stroke-width="1.5" stroke-linecap="round" stroke-linejoin="round"/>
</svg>
