<svg width="24" height="24" viewBox="0 0 24 24" fill="none" xmlns="http://www.w3.org/2000/svg">
<path d="M16.014 3.07075C16.014 3.07075 11.0049 2.77057 9.84359 3.40691C8.00309 4.41537 7.26322 4.41537 4.68285 4.41537C3.78533 4.41537 3 5.19974 3 6.2082V11.5867C3 12.4831 3.78533 13.2675 4.68285 13.2675H5.01942C5.01942 13.2675 5.80475 13.2675 6.14132 13.2675C9.7314 13.1554 10.6289 18.8701 10.6289 18.8701C11.4143 22.0075 13.8824 21.2232 14.3312 19.4303C14.5556 18.1978 14.5556 15.1724 14.5556 15.1724C14.5556 14.8362 14.78 14.6121 15.1165 14.6121H19.0432C19.8285 14.6121 21.287 13.9398 20.9504 11.5867L19.8285 6.2082C19.2676 3.74306 18.5096 3.07075 16.014 3.07075Z" stroke="#0A0C10" stroke-width="1.5" stroke-linecap="round" stroke-linejoin="round"/>
</svg>
