<svg width="24" height="24" viewBox="0 0 24 24" fill="none" xmlns="http://www.w3.org/2000/svg">
<path d="M11 5C11 5 10.7226 5 10 5C4 5 3 5.875 3 12C3 12.7409 3 13 3 13M15.9833 7C16.6611 8.04812 17 9.62868 17 12C17 17.99 15.9833 19 10 19C7.82777 19 6.1611 18.8104 5 17.99" stroke="#0A0C10" stroke-width="1.5" stroke-linecap="round" stroke-linejoin="round"/>
<path d="M17 8.76613C20 6.01346 21 6.01345 21 12.1383C21 17.8981 20 17.8981 17 15.4455" stroke="#0A0C10" stroke-width="1.5" stroke-linecap="round" stroke-linejoin="round"/>
<path d="M2 20L18 4" stroke="#0A0C10" stroke-width="1.5" stroke-linecap="round" stroke-linejoin="round"/>
</svg>
