<svg width="24" height="24" viewBox="0 0 24 24" fill="none" xmlns="http://www.w3.org/2000/svg">
<path d="M13 12C13 20 10.3913 20 9.74983 20C7.78261 20 6 17.6349 4.65217 17.1429C2.56522 16.381 1 16.5714 1 12C1 7.42857 2.04348 7.7259 4.65217 6.85714C6 6.40829 7.87747 4 9.74983 4C10.3913 4 13 4 13 12Z" stroke="#0A0C10" stroke-width="1.5" stroke-linecap="round" stroke-linejoin="round"/>
<path d="M18.75 7C18.75 7 20 8.8 20 12C20 15.2 18.75 17 18.75 17" stroke="#0A0C10" stroke-width="1.5" stroke-linecap="round" stroke-linejoin="round"/>
<path d="M16.25 9C16.25 9 17 10.08 17 12C17 13.92 16.25 15 16.25 15" stroke="#0A0C10" stroke-width="1.5" stroke-linecap="round" stroke-linejoin="round"/>
</svg>
